<?xml version="1.0" encoding="utf-8"?>
<!-- Generator: Adobe Illustrator 22.1.0, SVG Export Plug-In . SVG Version: 6.00 Build 0)  -->
<svg version="1.1" id="Layer_1" xmlns="http://www.w3.org/2000/svg" xmlns:xlink="http://www.w3.org/1999/xlink" x="0px" y="0px"
	 viewBox="0 0 512 512" style="enable-background:new 0 0 512 512;" xml:space="preserve">
<g>
	<path d="M312.2,101.3H481v56.2H312.2V101.3z"/>
	<path d="M413.5,185.7H284.1v-53.4c-8.4-2.8-19.7-2.8-28.1-2.8c-98.4,0-182.8,56.2-225,140.6c42.2,84.4,126.6,140.6,225,140.6
		s182.8-56.2,225-140.6C464.1,236.3,441.6,208.2,413.5,185.7z M213.8,185.7c22.5,0,42.2,19.7,42.2,42.2s-19.7,42.2-42.2,42.2
		s-42.2-19.7-42.2-42.2S191.3,185.7,213.8,185.7z M365.7,334.8c-33.8,22.5-70.3,33.8-109.7,33.8s-78.7-11.2-109.7-33.8
		c-28.1-16.9-50.6-39.4-67.5-64.7c16.9-25.3,39.4-47.8,64.7-64.7c2.8,0,2.8-2.8,5.6-2.8c-2.8,11.2-5.6,22.5-5.6,36.6
		c0,61.9,50.6,112.5,112.5,112.5S368.5,301,368.5,239.1c0-14.1-2.8-25.3-5.6-39.4c2.8,0,2.8,2.8,5.6,2.8
		c25.3,16.9,47.8,39.4,64.7,64.7C416.3,295.4,393.8,317.9,365.7,334.8L365.7,334.8z"/>
</g>
</svg>
