
<svg version="1.0" xmlns="http://www.w3.org/2000/svg"
 width="1279.000000pt" height="1010.000000pt" viewBox="0 0 1279.000000 1010.000000"
 preserveAspectRatio="xMidYMid meet">
<g transform="translate(0.000000,1010.000000) scale(0.100000,-0.100000)"
 stroke="none">
<path d="M9045 10045 c-5 -2 -63 -7 -127 -10 l-118 -7 0 -599 0 -599 -600 0
-600 0 0 -425 0 -425 600 0 600 0 0 -600 0 -600 425 0 425 0 0 600 0 600 599
0 599 0 9 118 c4 64 8 205 8 312 -1 176 -3 201 -23 254 -38 104 -106 153 -251
183 -106 22 -407 21 -699 -1 -128 -10 -236 -16 -239 -13 -3 4 3 111 12 239 24
302 24 594 1 702 -32 148 -78 210 -182 248 -51 19 -84 22 -244 25 -102 1 -189
1 -195 -2z"/>
<path d="M6245 8804 c-193 -52 -376 -79 -1025 -149 -308 -33 -507 -67 -715
-120 -1228 -314 -2469 -1071 -3461 -2111 -405 -424 -628 -699 -799 -985 -115
-193 -211 -413 -235 -538 -21 -109 -5 -297 30 -357 9 -17 76 -100 147 -185 71
-85 257 -311 413 -504 535 -660 744 -901 1034 -1190 480 -478 895 -782 1471
-1075 628 -320 1309 -540 2051 -664 656 -110 1372 -131 2064 -60 926 94 1888
377 2589 761 481 264 943 588 1401 983 204 176 772 745 884 885 181 228 404
585 567 908 52 103 95 177 104 177 9 0 16 16 21 45 9 65 0 327 -13 350 -6 11
-25 61 -43 110 -81 228 -240 465 -584 875 -248 295 -426 499 -474 541 -26 23
-75 55 -110 72 -54 25 -72 29 -125 25 -36 -2 -81 -13 -108 -26 -105 -51 -283
-231 -337 -342 -23 -48 -27 -67 -27 -146 0 -85 2 -95 38 -165 53 -105 133
-196 356 -403 320 -299 435 -467 448 -656 14 -204 -63 -340 -446 -790 -267
-314 -532 -577 -878 -873 -166 -142 -616 -507 -620 -503 -2 1 127 457 286
1012 158 555 291 1024 294 1042 l7 32 -448 0 -448 0 -12 -192 c-13 -201 -27
-314 -62 -483 -169 -822 -697 -1556 -1463 -2032 -369 -230 -751 -373 -1167
-438 -145 -22 -485 -31 -646 -16 -507 48 -1002 224 -1434 512 -202 135 -340
248 -521 429 -818 814 -1164 1942 -914 2975 148 612 487 1170 974 1598 580
511 1183 756 1949 793 l142 7 0 41 c0 65 -40 809 -46 834 -2 12 -8 22 -12 21
-4 -1 -47 -12 -97 -25z m-3348 -2026 c-9 -177 -61 -337 -249 -773 -225 -522
-260 -674 -261 -1120 -1 -528 90 -923 415 -1805 66 -179 126 -342 134 -363
l14 -38 -38 22 c-20 12 -113 72 -207 135 -283 188 -499 368 -786 654 -242 242
-523 567 -769 890 -147 193 -195 298 -188 415 9 141 80 261 363 605 380 463
659 737 1209 1184 110 91 237 194 281 230 44 35 82 65 84 65 2 1 1 -45 -2
-101z"/>
<path d="M6130 6785 c-597 -86 -1061 -348 -1365 -770 -81 -111 -193 -335 -239
-475 -74 -222 -113 -516 -101 -745 31 -583 257 -1109 639 -1491 201 -199 406
-334 655 -429 323 -122 718 -149 1098 -75 318 63 611 187 848 362 101 75 289
268 368 378 85 120 196 342 242 484 243 748 36 1635 -514 2209 -265 276 -584
454 -955 533 -106 23 -150 27 -351 30 -159 2 -259 -1 -325 -11z m496 -876
c345 -48 636 -269 820 -622 l57 -110 -89 6 c-49 3 -219 13 -377 23 -243 15
-312 16 -440 6 -381 -29 -528 -127 -598 -400 -38 -147 -45 -346 -25 -669 10
-158 20 -328 23 -377 l6 -88 -103 52 c-129 67 -244 151 -340 250 -463 477
-466 1088 -6 1545 289 287 704 435 1072 384z"/>
</g>
<title>Add to watch list</title>

</svg>
