<svg xmlns="http://www.w3.org/2000/svg" data-name="Layer 1" viewBox="0 -0.34 512 512"><path fill="#000" d="M144.627,262.15693h54.23731a7.5,7.5,0,0,0,0-15H144.627a7.5,7.5,0,1,0,0,15Zm0-90H450.252a7.5,7.5,0,0,0,0-15H144.627a7.5,7.5,0,1,0,0,15ZM351.34863,276.93232,314.335,252.14619a10.49967,10.49967,0,0,0-16.3418,8.72461v49.57227a10.49635,10.49635,0,0,0,16.3418,8.7246L351.34863,294.382a10.5,10.5,0,0,0,0-17.44971Zm-45.36035-12.32275.001.00049.00586.0039Zm7.00488,37.4043V269.3L337.419,285.65693ZM144.627,352.15693H204.5a7.5,7.5,0,0,0,0-15H144.627a7.5,7.5,0,1,0,0,15Zm305.9043-120.65234L413.61475,247.748a37.55171,37.55171,0,0,0-37.12061-32.217H263.749a37.54226,37.54226,0,0,0-37.5,37.5v65.252a37.54227,37.54227,0,0,0,37.5,37.5H376.49414a37.55162,37.55162,0,0,0,37.12061-32.217l36.91748,16.24389A11.74044,11.74044,0,0,0,467,329.06318v-86.8125a11.74038,11.74038,0,0,0-16.46875-10.74609Zm-51.53711,27.644c0,.01929-.00049.03833,0,.05737v52.90186c-.00049.019,0,.03809,0,.05737v6.11768a22.52554,22.52554,0,0,1-22.5,22.5H263.749a22.52554,22.52554,0,0,1-22.5-22.5V253.031a22.52554,22.52554,0,0,1,22.5-22.5H376.49414a22.52554,22.52554,0,0,1,22.5,22.5ZM452,324.06807l-38.00586-16.72291V263.9687L452,247.2458ZM54.627,46.58406a7.5,7.5,0,1,0,7.5,7.5A7.5,7.5,0,0,0,54.627,46.58406Zm60,0a7.5,7.5,0,1,0,7.5,7.5A7.5,7.5,0,0,0,114.627,46.58406Zm-30,0a7.5,7.5,0,1,0,7.5,7.5A7.5,7.5,0,0,0,84.62695,46.58406ZM474.5-.34307H37.5a37.54227,37.54227,0,0,0-37.5,37.5v437a37.54226,37.54226,0,0,0,37.5,37.5h437a37.54226,37.54226,0,0,0,37.5-37.5v-437A37.54227,37.54227,0,0,0,474.5-.34307Zm22.5,474.5a22.52554,22.52554,0,0,1-22.5,22.5H37.5a22.52554,22.52554,0,0,1-22.5-22.5v-369.5H497Zm0-384.5H15v-52.5a22.52554,22.52554,0,0,1,22.5-22.5h437a22.52554,22.52554,0,0,1,22.5,22.5Zm-437.5,375h31a14.51669,14.51669,0,0,0,14.5-14.5v-31a14.51669,14.51669,0,0,0-14.5-14.5h-31a14.51669,14.51669,0,0,0-14.5,14.5v31A14.51669,14.51669,0,0,0,59.5,464.65693Zm.5-45H90v30H60Zm84.62695,22.5H459.5a7.5,7.5,0,0,0,0-15H144.627a7.5,7.5,0,1,0,0,15ZM59.5,194.65693h31a14.51669,14.51669,0,0,0,14.5-14.5v-31a14.51669,14.51669,0,0,0-14.5-14.5h-31a14.51669,14.51669,0,0,0-14.5,14.5v31A14.51669,14.51669,0,0,0,59.5,194.65693Zm.5-45H90v30H60Zm-.5,225h31a14.51669,14.51669,0,0,0,14.5-14.5v-31a14.51669,14.51669,0,0,0-14.5-14.5h-31a14.51669,14.51669,0,0,0-14.5,14.5v31A14.51669,14.51669,0,0,0,59.5,374.65693Zm.5-45H90v30H60Zm-.5-45h31a14.51669,14.51669,0,0,0,14.5-14.5v-31a14.51669,14.51669,0,0,0-14.5-14.5h-31a14.51669,14.51669,0,0,0-14.5,14.5v31A14.51669,14.51669,0,0,0,59.5,284.65693Zm.5-45H90v30H60Z"/></svg>